<svg xmlns="http://www.w3.org/2000/svg" width="640" height="1200" viewBox="0 0 640 1200">
<defs><linearGradient id="bg" x1="0" y1="0" x2="1" y2="1"><stop stop-color="#342316"/><stop offset=".55" stop-color="#1c1510"/><stop offset="1" stop-color="#0f0b08"/></linearGradient><pattern id="grain" width="31" height="31" patternUnits="userSpaceOnUse"><path d="M0 10h31M0 24h31" stroke="#d7b978" stroke-opacity=".035"/><path d="M8 0v31M23 0v31" stroke="#000" stroke-opacity=".06"/></pattern></defs>
<rect width="640" height="1200" fill="url(#bg)"/><rect width="640" height="1200" fill="url(#grain)"/>
<g fill="none" stroke="#c69d63" stroke-opacity=".13" stroke-width="5"><path d="M-20 190c150-80 250 25 380-30s190-35 310 30"/><path d="M-50 725c170-95 280 40 430-25s200-55 300-8"/><path d="M80 0c-25 250 65 330 6 520s60 330 20 680"/><circle cx="470" cy="330" r="135"/><circle cx="470" cy="330" r="94"/></g>
<g fill="#8d3229" opacity=".08"><path d="M20 420 260 365l80 180-260 55z"/><path d="M390 810 690 750l30 250-260 45z"/></g>
<g font-family="serif" font-weight="700" fill="#d8b779" opacity=".065"><text x="70" y="180" font-size="84" transform="rotate(-11 70 180)">POLAR</text><text x="280" y="545" font-size="72" transform="rotate(8 280 545)">TONDRAR</text><text x="40" y="900" font-size="78" transform="rotate(-7 40 900)">BULDAR</text><text x="310" y="1090" font-size="60">VENDRAR</text></g>
<g stroke="#9a4035" stroke-opacity=".16" stroke-width="7"><path d="M25 650 250 620M300 180 600 115M220 1020 580 950"/></g>
</svg>
