<svg xmlns="http://www.w3.org/2000/svg" width="1920" height="1080" viewBox="0 0 1920 1080">
<defs><linearGradient id="sky" x1="0" y1="0" x2="0" y2="1"><stop stop-color="#4e91b5"/><stop offset=".54" stop-color="#9ac7d8"/><stop offset="1" stop-color="#e8d5a9"/></linearGradient><linearGradient id="rock" x1="0" y1="0" x2="1" y2="1"><stop stop-color="#546d72"/><stop offset="1" stop-color="#25383c"/></linearGradient></defs>
<rect width="1920" height="1080" fill="url(#sky)"/>
<g fill="url(#rock)" stroke="#bfe5e8" stroke-opacity=".25" stroke-width="8"><path d="M250 480c110-140 390-150 520-15l-75 175-315 70-190-105z"/><path d="M1050 330c120-110 350-80 430 45l-85 170-245 40-155-115z"/><path d="M760 730c90-70 270-65 350 25l-52 125-215 38-125-78z"/></g>
<g stroke="#9db99a" stroke-width="18" stroke-linecap="round" fill="none"><path d="M420 650c20 160-85 200-55 355"/><path d="M1270 525c-10 135 70 190 25 330"/><path d="M890 890c15 85-35 125-24 190"/></g>
<g fill="#fff" opacity=".28"><ellipse cx="420" cy="870" rx="410" ry="75"/><ellipse cx="1420" cy="730" rx="500" ry="85"/></g>
</svg>
